HIERARCHY
ROOT Hips
{
	OFFSET 0.000000 0.000000 0.000000
	CHANNELS 6 Xposition Yposition Zposition Zrotation Yrotation Xrotation 
	JOINT LHipJoint
	{
		OFFSET 0.000000 0.000000 0.000000
		CHANNELS 3 Zrotation Yrotation Xrotation
		JOINT LeftUpLeg
		{
			OFFSET 8.178360 -10.767780 5.035740
			CHANNELS 3 Zrotation Yrotation Xrotation
			JOINT LeftLeg
			{
				OFFSET 14.688660 -40.356780 0.000000
				CHANNELS 3 Zrotation Yrotation Xrotation
				JOINT LeftFoot
				{
					OFFSET 15.373200 -42.237540 0.000000
					CHANNELS 3 Zrotation Yrotation Xrotation
					JOINT LeftToeBase
					{
						OFFSET 0.945840 -2.598660 13.935300
						CHANNELS 3 Zrotation Yrotation Xrotation
						End Site
						{
							OFFSET 0.000000 0.000000 0.000000
						}
					}
				}
			}
		}
	}
	JOINT RHipJoint
	{
		OFFSET 0.000000 0.000000 0.000000
		CHANNELS 3 Zrotation Yrotation Xrotation
		JOINT RightUpLeg
		{
			OFFSET -7.833120 -10.767780 5.035740
			CHANNELS 3 Zrotation Yrotation Xrotation
			JOINT RightLeg
			{
				OFFSET -15.255180 -41.913300 0.000000
				CHANNELS 3 Zrotation Yrotation Xrotation
				JOINT RightFoot
				{
					OFFSET -15.409560 -42.337380 0.000000
					CHANNELS 3 Zrotation Yrotation Xrotation
					JOINT RightToeBase
					{
						OFFSET -0.988380 -2.715540 14.178900
						CHANNELS 3 Zrotation Yrotation Xrotation
						End Site
						{
							OFFSET 0.000000 0.000000 0.000000
						}
					}
				}
			}
		}
	}
	JOINT LowerBack
	{
		OFFSET 0.000000 0.000000 0.000000
		CHANNELS 3 Zrotation Yrotation Xrotation
		JOINT Spine
		{
			OFFSET 0.169620 12.213540 -1.160280
			CHANNELS 3 Zrotation Yrotation Xrotation
			JOINT Spine1
			{
				OFFSET 0.340320 12.293100 -0.256500
				CHANNELS 3 Zrotation Yrotation Xrotation
				JOINT Neck
				{
					OFFSET 0.000000 0.000000 0.000000
					CHANNELS 3 Zrotation Yrotation Xrotation
					JOINT Neck1
					{
						OFFSET -0.325020 10.477440 1.032120
						CHANNELS 3 Zrotation Yrotation Xrotation
						JOINT Head
						{
							OFFSET 0.624420 10.568160 -0.743820
							CHANNELS 3 Zrotation Yrotation Xrotation
							End Site
							{
								OFFSET 0.000000 0.000000 0.000000
							}
						}
					}
				}
				JOINT LeftShoulder
				{
					OFFSET 0.000000 0.000000 0.000000
					CHANNELS 3 Zrotation Yrotation Xrotation
					JOINT LeftArm
					{
						OFFSET 20.174460 7.205340 -1.867260
						CHANNELS 3 Zrotation Yrotation Xrotation
						JOINT LeftForeArm
						{
							OFFSET 29.898000 -0.000000 -0.000000
							CHANNELS 3 Zrotation Yrotation Xrotation
							JOINT LeftHand
							{
								OFFSET 20.901360 -0.000000 -0.000000
								CHANNELS 3 Zrotation Yrotation Xrotation
								JOINT LeftFingerBase
								{
									OFFSET 0.000000 0.000000 0.000000
									CHANNELS 3 Zrotation Yrotation Xrotation
									JOINT LeftHandIndex1
									{
										OFFSET 4.291560 -0.000000 -0.000000
										CHANNELS 3 Zrotation Yrotation Xrotation
										End Site
										{
											OFFSET 0.000000 0.000000 0.000000
										}
									}
								}
								JOINT LThumb
								{
									OFFSET 0.000000 0.000000 0.000000
									CHANNELS 3 Zrotation Yrotation Xrotation
									End Site
									{
										OFFSET 0.000000 0.000000 0.000000
									}
								}
							}
						}
					}
				}
				JOINT RightShoulder
				{
					OFFSET 0.000000 0.000000 0.000000
					CHANNELS 3 Zrotation Yrotation Xrotation
					JOINT RightArm
					{
						OFFSET -18.819600 8.244300 -2.427900
						CHANNELS 3 Zrotation Yrotation Xrotation
						JOINT RightForeArm
						{
							OFFSET -31.451400 -0.000000 -0.000000
							CHANNELS 3 Zrotation Yrotation Xrotation
							JOINT RightHand
							{
								OFFSET -20.665020 -0.000000 -0.000000
								CHANNELS 3 Zrotation Yrotation Xrotation
								JOINT RightFingerBase
								{
									OFFSET 0.000000 0.000000 0.000000
									CHANNELS 3 Zrotation Yrotation Xrotation
									JOINT RightHandIndex1
									{
										OFFSET -3.735180 -0.000000 -0.000000
										CHANNELS 3 Zrotation Yrotation Xrotation
										End Site
										{
											OFFSET 0.000000 0.000000 0.000000
										}
									}
								}
								JOINT RThumb
								{
									OFFSET 0.000000 0.000000 0.000000
									CHANNELS 3 Zrotation Yrotation Xrotation
									End Site
									{
										OFFSET 0.000000 0.000000 0.000000
									}
								}
							}
						}
					}
				}
			}
		}
	}
}
MOTION
Frames:	8
Frame Time:	0.0333333
-8.458740 109.131240 -8.747652 1.891649 -40.064745 -0.418443 -3.016620 1.848312 3.233138 -16.869147 -5.080564 -0.290972 3.226982 11.777544 37.608574 1.612584 -7.029499 27.798372 0.037000 -1.241100 -3.412400 1.118898 -1.058203 0.829726 21.323538 -0.030617 -18.726778 -0.647273 -7.242739 21.046663 0.493216 -4.479996 6.219576 -0.237900 -3.138900 8.665800 -0.756462 0.229479 7.531839 1.761442 0.367316 0.864205 1.069956 0.018900 -3.633163 -9.557004 -3.603184 -17.430002 4.590854 -3.147356 15.988783 3.408200 -2.003600 12.467200 -6.373530 -1.232788 -1.549300 -81.059354 0.369346 26.905425 16.061405 -22.875776 -4.031128 -1.129680 -2.217719 7.585466 15.922638 20.300618 6.616100 -7.125000 0.000000 0.000000 -12.672800 53.078500 -2.551100 5.395944 1.316993 -1.293973 82.479704 -7.654532 13.989681 -14.628367 21.920252 -3.060262 0.422212 -0.215351 7.234897 -15.582081 8.898626 -2.586000 7.125000 0.000000 0.000000 7.816300 -20.614100 4.606400 
-10.854498 109.362252 -6.909216 0.092746 -41.230104 0.170901 -2.760012 1.627021 2.756969 -14.966775 -5.363389 -4.856198 5.299954 13.953659 45.858864 1.756908 -8.428965 29.914844 0.060200 1.583100 4.354900 1.151216 -1.091851 1.019262 23.388658 -0.820803 -15.653132 -0.438525 -6.524211 19.311768 0.293136 -3.295654 5.880950 -0.303300 -3.540700 9.787900 0.559853 0.583346 8.386741 1.955564 0.971761 0.896117 0.600999 0.344617 -4.062701 -9.523874 -3.664625 -17.085124 4.659221 -3.260929 15.651596 3.415400 -2.039300 12.274100 -6.377479 -1.115873 -1.584313 -81.258516 1.998870 27.868421 15.602110 -22.295454 -3.814281 -1.139288 -2.235420 8.964203 15.352443 20.774103 6.495100 -7.125000 0.000000 0.000000 -13.516300 53.475700 -2.858200 5.392473 1.314632 -1.289668 81.942199 -7.545789 16.299496 -15.440307 23.055695 -3.412326 0.429900 -0.188470 5.762368 -15.731109 8.895024 -2.605600 7.125000 0.000000 0.000000 7.709400 -20.627200 4.539900 
-13.145304 109.355616 -5.064144 -0.763067 -42.234808 0.257924 -2.577104 1.416789 2.356565 -14.003143 -5.665539 -8.729249 6.933116 15.332896 51.700673 1.070815 -8.604409 23.220578 0.054500 -1.507000 -4.144900 1.160629 -1.096398 1.153134 24.412964 -0.936222 -13.281093 -0.445208 -6.397978 19.195341 0.212150 -2.623953 4.640631 -0.315600 -3.611100 9.984900 1.223795 0.988979 8.788076 1.927307 1.576718 1.072202 0.057487 0.666569 -3.931349 -9.366817 -3.833390 -16.787666 4.918723 -3.568503 15.160837 3.449100 -2.115100 12.025400 -6.431731 -1.024078 -1.582843 -81.161138 2.752120 28.718029 14.925135 -21.382953 -3.488781 -1.179238 -2.233244 10.087523 15.048998 21.050730 6.440300 -7.125000 0.000000 0.000000 -13.961400 53.710000 -3.035900 5.398184 1.340273 -1.246802 81.737057 -6.225562 17.103143 -15.822350 23.630877 -3.598390 0.385303 -0.265969 5.261390 -14.912691 11.308556 -3.132800 7.125000 0.000000 0.000000 8.279600 -18.115100 5.351100 
-15.363132 109.240416 -3.295674 -1.102707 -43.237055 0.024673 -2.487370 1.220260 2.022987 -13.443857 -5.989613 -12.118136 7.814174 16.020239 54.563178 0.628769 -7.069715 16.562472 0.409500 -4.108100 -11.381000 1.165153 -1.100023 1.272657 24.978654 -0.766114 -11.309189 -0.549025 -6.562087 19.855504 0.191786 -2.311912 2.933613 -0.277000 -3.385000 9.352500 1.222245 1.364674 9.323569 1.934171 2.065529 1.132268 -0.047587 0.938563 -4.120185 -9.324934 -3.830341 -16.540056 4.974628 -3.607733 15.196118 3.451900 -2.126100 11.989700 -6.464426 -0.938239 -1.614403 -81.831445 3.958453 27.145439 14.506558 -20.792972 -3.277235 -1.217545 -2.182289 11.493051 14.908737 20.748504 6.292800 -7.125000 0.000000 0.000000 -13.963300 53.361600 -2.916300 5.416277 1.333186 -1.219968 81.446217 -4.880161 16.973651 -16.124772 24.022742 -3.729026 0.383354 -0.259184 5.331762 -14.970980 11.202461 -3.114400 7.125000 0.000000 0.000000 8.241600 -18.227100 5.305400 
-17.412672 108.940038 -1.475334 -1.346239 -43.971446 -0.030443 -2.460925 1.022884 1.721908 -13.044478 -6.664349 -15.182796 7.897365 16.177165 54.748822 0.375659 -5.193177 11.139597 0.833700 -5.824900 -16.277100 1.171110 -1.070916 1.367897 25.317549 -0.495545 -10.250954 -0.816967 -7.134810 21.693550 0.103403 -1.793551 0.679634 -0.348500 -3.793000 10.495100 1.471222 1.601517 9.467898 1.893236 2.398019 1.123938 -0.353023 1.129222 -4.204057 -9.504367 -3.945437 -15.987073 5.192644 -3.783082 15.166749 3.551100 -2.203500 11.879500 -6.509200 -0.837062 -1.641664 -82.524808 5.010792 25.814252 14.099268 -20.199646 -3.072407 -1.209018 -2.232792 11.073379 14.673363 20.994943 6.266400 -7.125000 0.000000 0.000000 -14.330700 53.602100 -3.080600 5.406229 1.343571 -1.186555 81.380839 -3.544080 16.672057 -16.560507 24.590228 -3.921570 0.392186 -0.237961 4.997650 -15.210941 10.848475 -3.064300 7.125000 0.000000 0.000000 8.073200 -18.593700 5.128700 
-19.474884 108.619764 0.323292 -1.967442 -45.278416 0.063163 -2.462936 0.856309 1.456431 -12.211808 -7.395198 -17.707323 7.280690 15.892137 52.654666 0.224272 -3.396044 6.936652 0.465600 -4.376600 -12.138700 1.190001 -1.056627 1.460346 25.946109 -0.047924 -8.402037 -0.955901 -7.367147 22.538719 0.002940 -1.333758 -0.989530 -0.267000 -3.324300 9.182900 2.023608 2.002569 9.763602 1.730035 2.987413 1.244750 -1.102115 1.444863 -4.058554 -9.165758 -4.027057 -16.304438 5.431668 -4.015573 15.443820 3.564600 -2.242800 12.085900 -6.538770 -0.770801 -1.654149 -82.562470 5.584711 24.909669 13.781914 -19.751543 -2.918239 -1.205320 -2.278926 10.742164 14.512598 21.343233 6.295100 -7.125000 0.000000 0.000000 -14.672600 53.953000 -3.283600 5.377091 1.362678 -1.164524 81.622622 -2.195034 17.523836 -17.336840 25.607204 -4.284621 0.412845 -0.193032 3.533862 -15.570419 10.281973 -2.971600 7.125000 0.000000 0.000000 7.817800 -19.189000 4.859100 
-21.449034 108.202374 2.202744 -2.717193 -46.258321 0.573425 -2.569543 0.699987 1.250700 -11.376323 -8.109833 -19.594575 5.904525 15.005412 47.966222 0.038783 -1.109799 3.743175 0.494100 -4.506700 -12.506800 1.214650 -1.036549 1.541717 26.552458 0.298251 -6.919267 -1.099480 -7.612993 23.400380 -0.120908 -0.872205 -2.703299 -0.272200 -3.356000 9.271400 2.740544 2.297215 9.751594 1.741314 3.454688 1.246178 -1.554023 1.692543 -4.018450 -9.475588 -4.178809 -15.948112 5.500172 -4.154464 15.255789 3.637900 -2.330400 11.951500 -6.567463 -0.695264 -1.671192 -83.069199 6.258714 24.231918 13.484751 -19.299135 -2.777854 -1.178913 -2.272105 11.178441 13.963094 21.163917 5.998000 -7.125000 0.000000 0.000000 -15.174800 53.664300 -3.291800 5.354670 1.372026 -1.137292 81.374191 -1.054158 18.227209 -17.919034 26.350535 -4.561443 0.438392 -0.155871 2.802897 -16.192989 9.622111 -2.894200 7.125000 0.000000 0.000000 7.369000 -19.864700 4.463300 
-23.426196 108.049776 4.096674 -3.463921 -47.278511 1.263406 -2.781280 0.558241 1.113592 -10.517342 -8.401867 -20.877963 3.981572 13.424732 41.046082 -0.269513 1.590119 2.220395 0.374800 -3.932000 -10.885500 1.269828 -1.030707 1.637718 27.014682 0.218037 -5.161771 -1.052291 -7.443803 22.998293 -0.282157 -0.225920 -3.755178 -0.273500 -3.364100 9.294100 3.436633 2.589216 9.809305 1.686066 3.920825 1.145042 -2.129063 1.938085 -4.198556 -9.474750 -4.304560 -15.714006 5.496937 -4.344447 15.094314 3.614100 -2.416000 11.860500 -6.558869 -0.632835 -1.704871 -83.465585 7.058604 23.408299 13.457570 -19.261491 -2.756191 -1.223859 -2.276518 11.779247 14.258788 21.393830 6.191600 -7.125000 0.000000 0.000000 -14.984300 53.966800 -3.360900 5.307075 1.379844 -1.127671 81.080459 -0.235818 19.870692 -18.703595 27.367823 -4.964882 0.421864 -0.149281 2.957548 -15.957069 9.704021 -2.869700 7.125000 0.000000 0.000000 7.547800 -19.801600 4.584200 
